<svg xmlns="http://www.w3.org/2000/svg" width="24" height="24" viewBox="0 0 24 24" fill="currentColor">
  <path d="M9.64 7.64c.23-.5.36-1.05.36-1.64A4 4 0 0 0 6 2a4 4 0 0 0-4 4 4 4 0 0 0 4 4c.59 0 1.14-.13 1.64-.36L10 12l-2.36 2.36C7.14 14.13 6.59 14 6 14a4 4 0 0 0-4 4 4 4 0 0 0 4 4 4 4 0 0 0 4-4c0-.59-.13-1.14-.36-1.64L12 14l7 7h3v-1L9.64 7.64zM6 8a2 2 0 1 1 0-4 2 2 0 0 1 0 4zm0 12a2 2 0 1 1 0-4 2 2 0 0 1 0 4zm6-7.5a1.5 1.5 0 1 1 0-3 1.5 1.5 0 0 1 0 3zM19 3l-6 6 1.41 1.41L22 4.41V3h-3z"/>
</svg>
